<svg width="187" height="48" viewBox="0 0 187 48" fill="none" xmlns="http://www.w3.org/2000/svg">
<path d="M51.62 38.432C49.508 38.432 47.708 38.048 46.22 37.28C44.756 36.512 43.496 35.48 42.44 34.184L45.248 31.556C46.136 32.636 47.108 33.452 48.164 34.004C49.244 34.556 50.468 34.832 51.836 34.832C53.444 34.832 54.656 34.472 55.472 33.752C56.288 33.032 56.696 32.06 56.696 30.836C56.696 29.852 56.408 29.072 55.832 28.496C55.256 27.92 54.236 27.488 52.772 27.2L50.54 26.804C48.092 26.348 46.256 25.544 45.032 24.392C43.808 23.24 43.196 21.656 43.196 19.64C43.196 18.536 43.4 17.54 43.808 16.652C44.24 15.74 44.828 14.984 45.572 14.384C46.34 13.76 47.264 13.28 48.344 12.944C49.424 12.608 50.636 12.44 51.98 12.44C53.876 12.44 55.52 12.776 56.912 13.448C58.304 14.096 59.492 15.044 60.476 16.292L57.632 18.812C56.984 17.972 56.192 17.3 55.256 16.796C54.32 16.292 53.156 16.04 51.764 16.04C50.324 16.04 49.208 16.328 48.416 16.904C47.624 17.48 47.228 18.32 47.228 19.424C47.228 20.48 47.552 21.272 48.2 21.8C48.848 22.304 49.856 22.688 51.224 22.952L53.456 23.42C55.976 23.9 57.812 24.716 58.964 25.868C60.14 27.02 60.728 28.604 60.728 30.62C60.728 31.796 60.524 32.864 60.116 33.824C59.708 34.784 59.108 35.612 58.316 36.308C57.548 36.98 56.6 37.508 55.472 37.892C54.344 38.252 53.06 38.432 51.62 38.432ZM76.6636 34.904H76.5196C76.3516 35.36 76.1236 35.804 75.8356 36.236C75.5716 36.668 75.2236 37.052 74.7916 37.388C74.3836 37.7 73.8796 37.952 73.2796 38.144C72.7036 38.336 72.0316 38.432 71.2636 38.432C69.3196 38.432 67.8076 37.808 66.7276 36.56C65.6716 35.312 65.1436 33.524 65.1436 31.196V19.28H69.0676V30.692C69.0676 33.596 70.2676 35.048 72.6676 35.048C73.1716 35.048 73.6636 34.988 74.1436 34.868C74.6236 34.724 75.0436 34.52 75.4036 34.256C75.7876 33.992 76.0876 33.656 76.3036 33.248C76.5436 32.84 76.6636 32.36 76.6636 31.808V19.28H80.5876V38H76.6636V34.904ZM102.622 39.764C102.622 41.708 101.878 43.172 100.39 44.156C98.9024 45.14 96.4784 45.632 93.1184 45.632C91.5824 45.632 90.2744 45.524 89.1944 45.308C88.1384 45.116 87.2624 44.828 86.5664 44.444C85.8944 44.06 85.4024 43.592 85.0904 43.04C84.7784 42.488 84.6224 41.852 84.6224 41.132C84.6224 40.1 84.8984 39.296 85.4504 38.72C86.0264 38.144 86.8184 37.748 87.8264 37.532V37.136C86.4104 36.68 85.7024 35.72 85.7024 34.256C85.7024 33.296 86.0264 32.564 86.6744 32.06C87.3224 31.532 88.1024 31.16 89.0144 30.944V30.8C87.9104 30.272 87.0584 29.54 86.4584 28.604C85.8824 27.644 85.5944 26.528 85.5944 25.256C85.5944 23.336 86.2304 21.788 87.5024 20.612C88.7984 19.436 90.6464 18.848 93.0464 18.848C94.3664 18.848 95.4944 19.04 96.4304 19.424V18.92C96.4304 18.08 96.6224 17.432 97.0064 16.976C97.4144 16.496 98.0384 16.256 98.8784 16.256H101.758V19.424H97.9424V20.18C98.7824 20.732 99.4304 21.452 99.8864 22.34C100.342 23.204 100.57 24.176 100.57 25.256C100.57 27.152 99.9224 28.688 98.6264 29.864C97.3304 31.016 95.4824 31.592 93.0824 31.592C92.1704 31.592 91.3544 31.496 90.6344 31.304C90.1544 31.472 89.7344 31.712 89.3744 32.024C89.0144 32.312 88.8344 32.696 88.8344 33.176C88.8344 33.68 89.0624 34.04 89.5184 34.256C89.9744 34.472 90.6224 34.58 91.4624 34.58H96.0704C98.3744 34.58 100.042 35.048 101.074 35.984C102.106 36.896 102.622 38.156 102.622 39.764ZM98.9504 40.196C98.9504 39.548 98.6984 39.032 98.1944 38.648C97.7144 38.264 96.8264 38.072 95.5304 38.072H89.1944C88.3304 38.576 87.8984 39.296 87.8984 40.232C87.8984 41 88.1984 41.612 88.7984 42.068C89.4224 42.548 90.4664 42.788 91.9304 42.788H94.3784C97.4264 42.788 98.9504 41.924 98.9504 40.196ZM93.0824 28.748C94.2344 28.748 95.1224 28.496 95.7464 27.992C96.3944 27.464 96.7184 26.66 96.7184 25.58V24.86C96.7184 23.78 96.3944 22.988 95.7464 22.484C95.1224 21.956 94.2344 21.692 93.0824 21.692C91.9304 21.692 91.0304 21.956 90.3824 22.484C89.7584 22.988 89.4464 23.78 89.4464 24.86V25.58C89.4464 26.66 89.7584 27.464 90.3824 27.992C91.0304 28.496 91.9304 28.748 93.0824 28.748ZM119.153 38C118.121 38 117.329 37.712 116.777 37.136C116.225 36.536 115.889 35.78 115.769 34.868H115.589C115.229 36.044 114.569 36.932 113.609 37.532C112.649 38.132 111.485 38.432 110.117 38.432C108.173 38.432 106.673 37.928 105.617 36.92C104.585 35.912 104.069 34.556 104.069 32.852C104.069 30.98 104.741 29.576 106.085 28.64C107.453 27.704 109.445 27.236 112.061 27.236H115.445V25.652C115.445 24.5 115.133 23.612 114.509 22.988C113.885 22.364 112.913 22.052 111.593 22.052C110.489 22.052 109.589 22.292 108.893 22.772C108.197 23.252 107.609 23.864 107.129 24.608L104.789 22.484C105.413 21.428 106.289 20.564 107.417 19.892C108.545 19.196 110.021 18.848 111.845 18.848C114.269 18.848 116.129 19.412 117.425 20.54C118.721 21.668 119.369 23.288 119.369 25.4V34.796H121.349V38H119.153ZM111.233 35.444C112.457 35.444 113.465 35.18 114.257 34.652C115.049 34.1 115.445 33.368 115.445 32.456V29.756H112.133C109.421 29.756 108.065 30.596 108.065 32.276V32.924C108.065 33.764 108.341 34.4 108.893 34.832C109.469 35.24 110.249 35.444 111.233 35.444ZM125.195 38V19.28H129.119V22.88H129.299C129.563 21.92 130.115 21.08 130.955 20.36C131.795 19.64 132.959 19.28 134.447 19.28H135.491V23.06H133.943C132.383 23.06 131.183 23.312 130.343 23.816C129.527 24.32 129.119 25.064 129.119 26.048V38H125.195ZM142.972 38C141.628 38 140.62 37.664 139.948 36.992C139.3 36.296 138.976 35.336 138.976 34.112V11.36H142.9V34.796H145.492V38H142.972ZM156.586 38.432C155.29 38.432 154.102 38.204 153.022 37.748C151.966 37.292 151.066 36.644 150.322 35.804C149.578 34.94 149.002 33.908 148.594 32.708C148.186 31.484 147.982 30.128 147.982 28.64C147.982 27.152 148.186 25.808 148.594 24.608C149.002 23.384 149.578 22.352 150.322 21.512C151.066 20.648 151.966 19.988 153.022 19.532C154.102 19.076 155.29 18.848 156.586 18.848C157.882 18.848 159.058 19.076 160.114 19.532C161.194 19.988 162.106 20.648 162.85 21.512C163.594 22.352 164.17 23.384 164.578 24.608C164.986 25.808 165.19 27.152 165.19 28.64C165.19 30.128 164.986 31.484 164.578 32.708C164.17 33.908 163.594 34.94 162.85 35.804C162.106 36.644 161.194 37.292 160.114 37.748C159.058 38.204 157.882 38.432 156.586 38.432ZM156.586 35.192C157.93 35.192 159.01 34.784 159.826 33.968C160.642 33.128 161.05 31.88 161.05 30.224V27.056C161.05 25.4 160.642 24.164 159.826 23.348C159.01 22.508 157.93 22.088 156.586 22.088C155.242 22.088 154.162 22.508 153.346 23.348C152.53 24.164 152.122 25.4 152.122 27.056V30.224C152.122 31.88 152.53 33.128 153.346 33.968C154.162 34.784 155.242 35.192 156.586 35.192ZM185.978 39.764C185.978 41.708 185.234 43.172 183.746 44.156C182.258 45.14 179.834 45.632 176.474 45.632C174.938 45.632 173.63 45.524 172.55 45.308C171.494 45.116 170.618 44.828 169.922 44.444C169.25 44.06 168.758 43.592 168.446 43.04C168.134 42.488 167.978 41.852 167.978 41.132C167.978 40.1 168.254 39.296 168.806 38.72C169.382 38.144 170.174 37.748 171.182 37.532V37.136C169.766 36.68 169.058 35.72 169.058 34.256C169.058 33.296 169.382 32.564 170.03 32.06C170.678 31.532 171.458 31.16 172.37 30.944V30.8C171.266 30.272 170.414 29.54 169.814 28.604C169.238 27.644 168.95 26.528 168.95 25.256C168.95 23.336 169.586 21.788 170.858 20.612C172.154 19.436 174.002 18.848 176.402 18.848C177.722 18.848 178.85 19.04 179.786 19.424V18.92C179.786 18.08 179.978 17.432 180.362 16.976C180.77 16.496 181.394 16.256 182.234 16.256H185.114V19.424H181.298V20.18C182.138 20.732 182.786 21.452 183.242 22.34C183.698 23.204 183.926 24.176 183.926 25.256C183.926 27.152 183.278 28.688 181.982 29.864C180.686 31.016 178.838 31.592 176.438 31.592C175.526 31.592 174.71 31.496 173.99 31.304C173.51 31.472 173.09 31.712 172.73 32.024C172.37 32.312 172.19 32.696 172.19 33.176C172.19 33.68 172.418 34.04 172.874 34.256C173.33 34.472 173.978 34.58 174.818 34.58H179.426C181.73 34.58 183.398 35.048 184.43 35.984C185.462 36.896 185.978 38.156 185.978 39.764ZM182.306 40.196C182.306 39.548 182.054 39.032 181.55 38.648C181.07 38.264 180.182 38.072 178.886 38.072H172.55C171.686 38.576 171.254 39.296 171.254 40.232C171.254 41 171.554 41.612 172.154 42.068C172.778 42.548 173.822 42.788 175.286 42.788H177.734C180.782 42.788 182.306 41.924 182.306 40.196ZM176.438 28.748C177.59 28.748 178.478 28.496 179.102 27.992C179.75 27.464 180.074 26.66 180.074 25.58V24.86C180.074 23.78 179.75 22.988 179.102 22.484C178.478 21.956 177.59 21.692 176.438 21.692C175.286 21.692 174.386 21.956 173.738 22.484C173.114 22.988 172.802 23.78 172.802 24.86V25.58C172.802 26.66 173.114 27.464 173.738 27.992C174.386 28.496 175.286 28.748 176.438 28.748Z" fill="black"/>
<path fill-rule="evenodd" clip-rule="evenodd" d="M39 27.4116C39 34.364 33.1797 40 26 40C18.8203 40 13 34.364 13 27.4116C13 20.4591 25.9926 3 25.9926 3C25.9926 3 39 20.4591 39 27.4116Z" fill="#676FA3"/>
<path fill-rule="evenodd" clip-rule="evenodd" d="M32 28.3702C32 36.45 24.8366 43 16 43C7.16344 43 0 36.45 0 28.3702C0 20.2904 15.9909 0 15.9909 0C15.9909 0 32 20.2904 32 28.3702Z" fill="#EEF2FF"/>
</svg>
